<svg xmlns="http://www.w3.org/2000/svg" xmlns:xlink="http://www.w3.org/1999/xlink" width="500" zoomAndPan="magnify" viewBox="0 0 375 374.999991" height="500" preserveAspectRatio="xMidYMid meet" version="1.0"><defs><g/><clipPath id="bfc76c9967"><path d="M 137.019531 95.242188 L 238.269531 95.242188 L 238.269531 187.492188 L 137.019531 187.492188 Z M 137.019531 95.242188 " clip-rule="nonzero"/></clipPath><clipPath id="1b812f65b0"><path d="M 137.019531 102.800781 L 238.269531 102.800781 L 238.269531 195 L 137.019531 195 Z M 137.019531 102.800781 " clip-rule="nonzero"/></clipPath></defs><g clip-path="url(#bfc76c9967)"><path fill="#ff1616" d="M 218.839844 125.933594 L 212.835938 125.933594 L 212.835938 95.328125 L 197.792969 110.867188 L 187.609375 95.664062 L 177.421875 110.867188 L 162.3125 95.328125 L 162.3125 126 L 156.308594 126 C 145.71875 125.933594 137.019531 134.609375 137.019531 145.238281 L 137.019531 168.105469 C 137.019531 178.730469 145.71875 187.410156 156.378906 187.410156 L 218.910156 187.410156 C 229.566406 187.410156 238.269531 178.730469 238.269531 168.105469 L 238.269531 145.238281 C 238.199219 134.609375 229.5 125.933594 218.839844 125.933594 Z M 234.960938 168.105469 C 234.960938 176.914062 227.746094 184.113281 218.910156 184.113281 L 201.101562 184.113281 L 201.101562 182.429688 C 201.101562 180.277344 199.347656 178.53125 197.121094 178.53125 L 178.097656 178.53125 C 175.9375 178.53125 174.117188 180.277344 174.117188 182.429688 L 174.117188 184.113281 L 156.378906 184.113281 C 147.539062 184.113281 140.324219 176.914062 140.324219 168.105469 L 140.324219 145.238281 C 140.324219 136.425781 147.539062 129.226562 156.378906 129.226562 L 163.460938 129.226562 L 163.460938 129.296875 L 174.117188 129.296875 L 174.117188 129.765625 C 174.117188 131.917969 175.871094 133.734375 178.097656 133.734375 L 197.1875 133.734375 C 199.347656 133.734375 201.167969 131.984375 201.167969 129.765625 L 201.167969 129.296875 L 211.824219 129.296875 L 211.824219 129.226562 L 218.910156 129.226562 C 227.746094 129.226562 234.960938 136.425781 234.960938 145.238281 Z M 234.960938 168.105469 " fill-opacity="1" fill-rule="nonzero"/></g><path fill="#ff1616" d="M 174.925781 151.15625 L 170.8125 151.15625 C 169.867188 151.15625 169.125 150.414062 169.125 149.472656 L 169.125 145.371094 C 169.125 144.429688 168.382812 143.6875 167.441406 143.6875 L 159.75 143.6875 C 158.804688 143.6875 158.0625 144.429688 158.0625 145.371094 L 158.0625 149.472656 C 158.0625 150.414062 157.320312 151.15625 156.378906 151.15625 L 152.261719 151.15625 C 151.316406 151.15625 150.578125 151.894531 150.578125 152.835938 L 150.578125 160.503906 C 150.578125 161.445312 151.316406 162.1875 152.261719 162.1875 L 156.378906 162.1875 C 157.320312 162.1875 158.0625 162.925781 158.0625 163.867188 L 158.0625 167.96875 C 158.0625 168.910156 158.804688 169.652344 159.75 169.652344 L 167.441406 169.652344 C 168.382812 169.652344 169.125 168.910156 169.125 167.96875 L 169.125 163.867188 C 169.125 162.925781 169.867188 162.1875 170.8125 162.1875 L 174.925781 162.1875 C 175.871094 162.1875 176.613281 161.445312 176.613281 160.503906 L 176.613281 152.835938 C 176.546875 151.894531 175.804688 151.15625 174.925781 151.15625 Z M 174.925781 151.15625 " fill-opacity="1" fill-rule="nonzero"/><path fill="#ff1616" d="M 210.140625 143.757812 C 208.183594 143.757812 206.632812 145.304688 206.632812 147.253906 C 206.632812 149.203125 208.183594 150.75 210.140625 150.75 C 212.09375 150.75 213.648438 149.203125 213.648438 147.253906 C 213.648438 145.304688 212.09375 143.757812 210.140625 143.757812 Z M 210.140625 143.757812 " fill-opacity="1" fill-rule="nonzero"/><path fill="#ff1616" d="M 210.140625 162.589844 C 208.183594 162.589844 206.632812 164.136719 206.632812 166.085938 C 206.632812 168.039062 208.183594 169.585938 210.140625 169.585938 C 212.09375 169.585938 213.648438 168.039062 213.648438 166.085938 C 213.648438 164.136719 212.09375 162.589844 210.140625 162.589844 Z M 210.140625 162.589844 " fill-opacity="1" fill-rule="nonzero"/><path fill="#ff1616" d="M 223.089844 156.671875 C 223.089844 157.132812 223 157.582031 222.824219 158.007812 C 222.644531 158.4375 222.390625 158.816406 222.0625 159.144531 C 221.734375 159.472656 221.355469 159.722656 220.925781 159.902344 C 220.496094 160.078125 220.046875 160.167969 219.582031 160.167969 C 219.117188 160.167969 218.671875 160.078125 218.242188 159.902344 C 217.8125 159.722656 217.429688 159.472656 217.101562 159.144531 C 216.773438 158.816406 216.519531 158.4375 216.34375 158.007812 C 216.164062 157.582031 216.074219 157.132812 216.074219 156.671875 C 216.074219 156.207031 216.164062 155.761719 216.34375 155.332031 C 216.519531 154.902344 216.773438 154.523438 217.101562 154.199219 C 217.429688 153.871094 217.8125 153.617188 218.242188 153.4375 C 218.671875 153.261719 219.117188 153.171875 219.582031 153.171875 C 220.046875 153.171875 220.496094 153.261719 220.925781 153.4375 C 221.355469 153.617188 221.734375 153.871094 222.0625 154.199219 C 222.390625 154.523438 222.644531 154.902344 222.824219 155.332031 C 223 155.761719 223.089844 156.207031 223.089844 156.671875 Z M 223.089844 156.671875 " fill-opacity="1" fill-rule="nonzero"/><path fill="#ff1616" d="M 200.695312 153.171875 C 198.738281 153.171875 197.1875 154.71875 197.1875 156.671875 C 197.1875 158.621094 198.738281 160.167969 200.695312 160.167969 C 202.652344 160.167969 204.203125 158.621094 204.203125 156.671875 C 204.203125 154.71875 202.652344 153.171875 200.695312 153.171875 Z M 200.695312 153.171875 " fill-opacity="1" fill-rule="nonzero"/><g fill="#ff1616" fill-opacity="1"><g transform="translate(134.130571, 218.05667)"><g><path d="M 2.03125 -18.078125 C 2.113281 -18.078125 2.363281 -18.078125 2.78125 -18.078125 C 3.207031 -18.078125 3.707031 -18.078125 4.28125 -18.078125 C 4.851562 -18.078125 5.421875 -18.070312 5.984375 -18.0625 C 6.554688 -18.0625 7.035156 -18.054688 7.421875 -18.046875 C 9.617188 -17.992188 11.40625 -17.601562 12.78125 -16.875 C 14.164062 -16.144531 15.179688 -15.117188 15.828125 -13.796875 C 16.472656 -12.484375 16.796875 -10.925781 16.796875 -9.125 C 16.796875 -7.25 16.453125 -5.628906 15.765625 -4.265625 C 15.085938 -2.898438 14.046875 -1.847656 12.640625 -1.109375 C 11.234375 -0.367188 9.453125 0 7.296875 0 L 2.03125 0 Z M 5.703125 -15.125 L 5.703125 -2.953125 L 7.375 -2.953125 C 8.40625 -2.953125 9.34375 -3.148438 10.1875 -3.546875 C 11.039062 -3.953125 11.71875 -4.609375 12.21875 -5.515625 C 12.726562 -6.421875 12.984375 -7.632812 12.984375 -9.15625 C 12.984375 -10.5625 12.757812 -11.703125 12.3125 -12.578125 C 11.863281 -13.460938 11.222656 -14.109375 10.390625 -14.515625 C 9.554688 -14.921875 8.566406 -15.125 7.421875 -15.125 Z M 5.703125 -15.125 "/></g></g></g><g fill="#ff1616" fill-opacity="1"><g transform="translate(152.12772, 218.05667)"><g><path d="M 2.03125 0 L 2.03125 -18.078125 L 14.4375 -18.078125 L 14.421875 -15 L 5.6875 -15 L 5.6875 -10.609375 L 13.28125 -10.609375 L 13.28125 -7.59375 L 5.65625 -7.59375 L 5.65625 -3.109375 L 14.5625 -3.09375 L 14.5625 0 Z M 2.03125 0 "/></g></g></g><g fill="#ff1616" fill-opacity="1"><g transform="translate(167.987708, 218.05667)"><g><path d="M 17.03125 -18.078125 L 10.796875 0 L 6.65625 0 L 0.46875 -18.078125 L 3.96875 -18.078125 L 8.734375 -4.234375 L 13.546875 -18.078125 Z M 17.03125 -18.078125 "/></g></g></g><g fill="#ff1616" fill-opacity="1"><g transform="translate(185.497431, 218.05667)"><g><path d="M 2.03125 -18.078125 L 14.328125 -18.078125 L 14.3125 -15.03125 L 5.703125 -15.03125 L 5.703125 -10.484375 L 13.15625 -10.484375 L 13.15625 -7.5 L 5.703125 -7.5 L 5.703125 0 L 2.03125 0 Z M 2.03125 -18.078125 "/></g></g></g><g fill="#ff1616" fill-opacity="1"><g transform="translate(200.832501, 218.05667)"><g><path d="M 2.03125 -18.078125 L 5.703125 -18.078125 L 5.703125 -3.09375 L 13.546875 -3.09375 L 13.546875 0 L 2.03125 0 Z M 2.03125 -18.078125 "/></g></g></g><g fill="#ff1616" fill-opacity="1"><g transform="translate(215.267711, 218.05667)"><g><path d="M 2.03125 -18.078125 L 5.65625 -18.078125 L 5.65625 0 L 2.03125 0 Z M 2.03125 -18.078125 "/></g></g></g><g fill="#ff1616" fill-opacity="1"><g transform="translate(222.953998, 218.05667)"><g><path d="M 17.234375 0 L 12.6875 0 L 8.609375 -6.53125 L 4.609375 0 L 0.6875 0 L 6.703125 -9.171875 L 0.875 -18.078125 L 5.390625 -18.078125 L 9 -12.21875 L 12.578125 -18.078125 L 16.453125 -18.078125 L 10.875 -9.65625 Z M 17.234375 0 "/></g></g></g><g fill="#004aad" fill-opacity="1"><g transform="translate(146.283525, 236.71144)"><g><path d="M 4.734375 0.140625 C 4.253906 0.140625 3.785156 0.078125 3.328125 -0.046875 C 2.867188 -0.171875 2.445312 -0.351562 2.0625 -0.59375 C 1.6875 -0.832031 1.375 -1.132812 1.125 -1.5 C 0.875 -1.863281 0.722656 -2.289062 0.671875 -2.78125 L 2.6875 -2.78125 C 2.75 -2.476562 2.875 -2.226562 3.0625 -2.03125 C 3.25 -1.832031 3.484375 -1.675781 3.765625 -1.5625 C 4.054688 -1.457031 4.378906 -1.40625 4.734375 -1.40625 C 5.097656 -1.40625 5.425781 -1.445312 5.71875 -1.53125 C 6.007812 -1.625 6.242188 -1.757812 6.421875 -1.9375 C 6.609375 -2.125 6.703125 -2.351562 6.703125 -2.625 C 6.703125 -2.875 6.628906 -3.078125 6.484375 -3.234375 C 6.335938 -3.390625 6.140625 -3.515625 5.890625 -3.609375 C 5.640625 -3.710938 5.359375 -3.796875 5.046875 -3.859375 L 3.375 -4.203125 C 2.632812 -4.335938 2.046875 -4.628906 1.609375 -5.078125 C 1.179688 -5.523438 0.960938 -6.125 0.953125 -6.875 C 0.953125 -7.476562 1.113281 -8.003906 1.4375 -8.453125 C 1.769531 -8.898438 2.21875 -9.242188 2.78125 -9.484375 C 3.351562 -9.722656 3.988281 -9.84375 4.6875 -9.84375 C 5.53125 -9.84375 6.238281 -9.710938 6.8125 -9.453125 C 7.382812 -9.191406 7.816406 -8.835938 8.109375 -8.390625 C 8.410156 -7.941406 8.566406 -7.445312 8.578125 -6.90625 L 6.609375 -6.90625 C 6.566406 -7.238281 6.460938 -7.503906 6.296875 -7.703125 C 6.128906 -7.910156 5.910156 -8.054688 5.640625 -8.140625 C 5.367188 -8.234375 5.066406 -8.28125 4.734375 -8.28125 C 4.472656 -8.28125 4.234375 -8.25 4.015625 -8.1875 C 3.804688 -8.132812 3.625 -8.054688 3.46875 -7.953125 C 3.320312 -7.847656 3.207031 -7.722656 3.125 -7.578125 C 3.050781 -7.429688 3.015625 -7.269531 3.015625 -7.09375 C 3.015625 -6.8125 3.109375 -6.582031 3.296875 -6.40625 C 3.484375 -6.226562 3.835938 -6.085938 4.359375 -5.984375 L 6.015625 -5.640625 C 6.617188 -5.523438 7.09375 -5.351562 7.4375 -5.125 C 7.789062 -4.894531 8.054688 -4.632812 8.234375 -4.34375 C 8.410156 -4.0625 8.523438 -3.769531 8.578125 -3.46875 C 8.640625 -3.164062 8.671875 -2.890625 8.671875 -2.640625 C 8.671875 -2.117188 8.503906 -1.644531 8.171875 -1.21875 C 7.847656 -0.800781 7.390625 -0.46875 6.796875 -0.21875 C 6.210938 0.0195312 5.523438 0.140625 4.734375 0.140625 Z M 4.734375 0.140625 "/></g></g></g><g fill="#004aad" fill-opacity="1"><g transform="translate(155.605161, 236.71144)"><g><path d="M 0.25 -7.984375 L 0.25 -9.71875 L 8.03125 -9.71875 L 8.03125 -7.984375 L 5.171875 -7.984375 L 5.171875 0 L 3.1875 0 L 3.1875 -7.984375 Z M 0.25 -7.984375 "/></g></g></g><g fill="#004aad" fill-opacity="1"><g transform="translate(163.885087, 236.71144)"><g><path d="M 8.640625 0 L 6.59375 0 L 5.015625 -3.75 L 3.046875 -3.75 L 3.046875 0 L 1.09375 0 L 1.09375 -9.71875 L 5.1875 -9.71875 C 5.96875 -9.71875 6.601562 -9.59375 7.09375 -9.34375 C 7.59375 -9.101562 7.957031 -8.765625 8.1875 -8.328125 C 8.414062 -7.890625 8.53125 -7.390625 8.53125 -6.828125 C 8.53125 -6.304688 8.453125 -5.867188 8.296875 -5.515625 C 8.140625 -5.171875 7.929688 -4.878906 7.671875 -4.640625 C 7.410156 -4.410156 7.128906 -4.222656 6.828125 -4.078125 Z M 4.84375 -5.265625 C 5.363281 -5.265625 5.773438 -5.40625 6.078125 -5.6875 C 6.390625 -5.96875 6.546875 -6.332031 6.546875 -6.78125 C 6.546875 -7.226562 6.394531 -7.578125 6.09375 -7.828125 C 5.800781 -8.085938 5.429688 -8.21875 4.984375 -8.21875 L 3.046875 -8.21875 L 3.046875 -5.265625 Z M 4.84375 -5.265625 "/></g></g></g><g fill="#004aad" fill-opacity="1"><g transform="translate(173.240334, 236.71144)"><g><path d="M 1.09375 0 L 1.09375 -9.71875 L 7.765625 -9.71875 L 7.765625 -8.078125 L 3.0625 -8.078125 L 3.0625 -5.703125 L 7.140625 -5.703125 L 7.140625 -4.09375 L 3.046875 -4.09375 L 3.046875 -1.671875 L 7.84375 -1.671875 L 7.84375 0 Z M 1.09375 0 "/></g></g></g><g fill="#004aad" fill-opacity="1"><g transform="translate(181.768928, 236.71144)"><g><path d="M 0.375 0 L 3.859375 -9.71875 L 5.921875 -9.71875 L 9.40625 0 L 7.453125 0 L 6.65625 -2.25 L 3.15625 -2.25 L 2.34375 0 Z M 3.59375 -3.96875 L 6.1875 -3.96875 L 4.890625 -7.828125 Z M 3.59375 -3.96875 "/></g></g></g><g fill="#004aad" fill-opacity="1"><g transform="translate(191.534137, 236.71144)"><g><path d="M 1.09375 0 L 1.09375 -9.71875 L 3.9375 -9.71875 L 6.171875 -2.796875 L 8.421875 -9.71875 L 11.265625 -9.71875 L 11.265625 0 L 9.28125 0 L 9.28125 -7.4375 L 6.9375 0 L 5.390625 0 L 3.0625 -7.40625 L 3.0625 0 Z M 1.09375 0 "/></g></g></g><g fill="#004aad" fill-opacity="1"><g transform="translate(203.866655, 236.71144)"><g><path d="M 1.09375 -9.71875 L 3.046875 -9.71875 L 3.046875 0 L 1.09375 0 Z M 1.09375 -9.71875 "/></g></g></g><g fill="#004aad" fill-opacity="1"><g transform="translate(207.999895, 236.71144)"><g><path d="M 7.46875 -9.71875 L 9.4375 -9.71875 L 9.4375 0 L 7.671875 0 L 3.046875 -6.6875 L 3.046875 0 L 1.09375 0 L 1.09375 -9.71875 L 3.03125 -9.71875 L 7.46875 -3.296875 Z M 7.46875 -9.71875 "/></g></g></g><g fill="#004aad" fill-opacity="1"><g transform="translate(218.511098, 236.71144)"><g><path d="M 5.03125 0.140625 C 4.132812 0.140625 3.359375 -0.0625 2.703125 -0.46875 C 2.046875 -0.875 1.535156 -1.445312 1.171875 -2.1875 C 0.816406 -2.9375 0.640625 -3.820312 0.640625 -4.84375 C 0.640625 -5.875 0.828125 -6.765625 1.203125 -7.515625 C 1.578125 -8.265625 2.097656 -8.84375 2.765625 -9.25 C 3.441406 -9.65625 4.226562 -9.859375 5.125 -9.859375 C 5.707031 -9.859375 6.234375 -9.765625 6.703125 -9.578125 C 7.179688 -9.398438 7.597656 -9.148438 7.953125 -8.828125 C 8.304688 -8.515625 8.582031 -8.15625 8.78125 -7.75 C 8.976562 -7.351562 9.085938 -6.9375 9.109375 -6.5 L 7.03125 -6.5 C 6.976562 -6.8125 6.863281 -7.09375 6.6875 -7.34375 C 6.519531 -7.601562 6.300781 -7.8125 6.03125 -7.96875 C 5.757812 -8.125 5.441406 -8.203125 5.078125 -8.203125 C 4.648438 -8.203125 4.257812 -8.085938 3.90625 -7.859375 C 3.5625 -7.640625 3.285156 -7.285156 3.078125 -6.796875 C 2.878906 -6.316406 2.78125 -5.679688 2.78125 -4.890625 C 2.78125 -4.242188 2.847656 -3.707031 2.984375 -3.28125 C 3.117188 -2.863281 3.296875 -2.53125 3.515625 -2.28125 C 3.742188 -2.03125 4 -1.851562 4.28125 -1.75 C 4.570312 -1.644531 4.867188 -1.59375 5.171875 -1.59375 C 5.453125 -1.59375 5.707031 -1.640625 5.9375 -1.734375 C 6.164062 -1.835938 6.359375 -1.960938 6.515625 -2.109375 C 6.679688 -2.265625 6.8125 -2.429688 6.90625 -2.609375 C 7 -2.796875 7.054688 -2.972656 7.078125 -3.140625 L 7.15625 -3.734375 L 5.140625 -3.734375 L 5.140625 -5.09375 L 9.21875 -5.078125 L 9.21875 0 L 7.875 0 L 7.875 -1.265625 C 7.707031 -1.046875 7.5 -0.828125 7.25 -0.609375 C 7.007812 -0.398438 6.707031 -0.222656 6.34375 -0.078125 C 5.988281 0.0664062 5.550781 0.140625 5.03125 0.140625 Z M 5.03125 0.140625 "/></g></g></g><g clip-path="url(#1b812f65b0)"><path fill="#004aad" d="M 218.839844 133.488281 L 212.835938 133.488281 L 212.835938 102.886719 L 197.792969 118.421875 L 187.609375 103.222656 L 177.421875 118.421875 L 162.3125 102.886719 L 162.3125 133.558594 L 156.308594 133.558594 C 145.71875 133.488281 137.019531 142.164062 137.019531 152.792969 L 137.019531 175.660156 C 137.019531 186.289062 145.71875 194.964844 156.378906 194.964844 L 218.910156 194.964844 C 229.566406 194.964844 238.269531 186.289062 238.269531 175.660156 L 238.269531 152.792969 C 238.199219 142.164062 229.5 133.488281 218.839844 133.488281 Z M 234.960938 175.660156 C 234.960938 184.472656 227.746094 191.667969 218.910156 191.667969 L 201.101562 191.667969 L 201.101562 189.988281 C 201.101562 187.835938 199.347656 186.085938 197.121094 186.085938 L 178.097656 186.085938 C 175.9375 186.085938 174.117188 187.835938 174.117188 189.988281 L 174.117188 191.667969 L 156.378906 191.667969 C 147.539062 191.667969 140.324219 184.472656 140.324219 175.660156 L 140.324219 152.792969 C 140.324219 143.980469 147.539062 136.785156 156.378906 136.785156 L 163.460938 136.785156 L 163.460938 136.851562 L 174.117188 136.851562 L 174.117188 137.324219 C 174.117188 139.476562 175.871094 141.292969 178.097656 141.292969 L 197.1875 141.292969 C 199.347656 141.292969 201.167969 139.542969 201.167969 137.324219 L 201.167969 136.851562 L 211.824219 136.851562 L 211.824219 136.785156 L 218.910156 136.785156 C 227.746094 136.785156 234.960938 143.980469 234.960938 152.792969 Z M 234.960938 175.660156 " fill-opacity="1" fill-rule="nonzero"/></g><path fill="#004aad" d="M 174.925781 158.710938 L 170.8125 158.710938 C 169.867188 158.710938 169.125 157.972656 169.125 157.03125 L 169.125 152.925781 C 169.125 151.984375 168.382812 151.246094 167.441406 151.246094 L 159.75 151.246094 C 158.804688 151.246094 158.0625 151.984375 158.0625 152.925781 L 158.0625 157.03125 C 158.0625 157.972656 157.320312 158.710938 156.378906 158.710938 L 152.261719 158.710938 C 151.316406 158.710938 150.578125 159.453125 150.578125 160.394531 L 150.578125 168.0625 C 150.578125 169.003906 151.316406 169.742188 152.261719 169.742188 L 156.378906 169.742188 C 157.320312 169.742188 158.0625 170.480469 158.0625 171.425781 L 158.0625 175.527344 C 158.0625 176.46875 158.804688 177.207031 159.75 177.207031 L 167.441406 177.207031 C 168.382812 177.207031 169.125 176.46875 169.125 175.527344 L 169.125 171.425781 C 169.125 170.480469 169.867188 169.742188 170.8125 169.742188 L 174.925781 169.742188 C 175.871094 169.742188 176.613281 169.003906 176.613281 168.0625 L 176.613281 160.394531 C 176.546875 159.453125 175.804688 158.710938 174.925781 158.710938 Z M 174.925781 158.710938 " fill-opacity="1" fill-rule="nonzero"/><path fill="#004aad" d="M 210.140625 151.3125 C 208.183594 151.3125 206.632812 152.859375 206.632812 154.8125 C 206.632812 156.761719 208.183594 158.308594 210.140625 158.308594 C 212.09375 158.308594 213.648438 156.761719 213.648438 154.8125 C 213.648438 152.859375 212.09375 151.3125 210.140625 151.3125 Z M 210.140625 151.3125 " fill-opacity="1" fill-rule="nonzero"/><path fill="#004aad" d="M 210.140625 170.144531 C 208.183594 170.144531 206.632812 171.691406 206.632812 173.644531 C 206.632812 175.59375 208.183594 177.140625 210.140625 177.140625 C 212.09375 177.140625 213.648438 175.59375 213.648438 173.644531 C 213.648438 171.691406 212.09375 170.144531 210.140625 170.144531 Z M 210.140625 170.144531 " fill-opacity="1" fill-rule="nonzero"/><path fill="#004aad" d="M 223.089844 164.226562 C 223.089844 164.691406 223 165.136719 222.824219 165.566406 C 222.644531 165.992188 222.390625 166.371094 222.0625 166.699219 C 221.734375 167.027344 221.355469 167.28125 220.925781 167.457031 C 220.496094 167.636719 220.046875 167.726562 219.582031 167.726562 C 219.117188 167.726562 218.671875 167.636719 218.242188 167.457031 C 217.8125 167.28125 217.429688 167.027344 217.101562 166.699219 C 216.773438 166.371094 216.519531 165.992188 216.34375 165.566406 C 216.164062 165.136719 216.074219 164.691406 216.074219 164.226562 C 216.074219 163.761719 216.164062 163.316406 216.34375 162.890625 C 216.519531 162.460938 216.773438 162.082031 217.101562 161.753906 C 217.429688 161.425781 217.8125 161.171875 218.242188 160.996094 C 218.671875 160.820312 219.117188 160.730469 219.582031 160.730469 C 220.046875 160.730469 220.496094 160.820312 220.925781 160.996094 C 221.355469 161.171875 221.734375 161.425781 222.0625 161.753906 C 222.390625 162.082031 222.644531 162.460938 222.824219 162.890625 C 223 163.316406 223.089844 163.761719 223.089844 164.226562 Z M 223.089844 164.226562 " fill-opacity="1" fill-rule="nonzero"/><path fill="#004aad" d="M 200.695312 160.730469 C 198.738281 160.730469 197.1875 162.277344 197.1875 164.226562 C 197.1875 166.175781 198.738281 167.726562 200.695312 167.726562 C 202.652344 167.726562 204.203125 166.175781 204.203125 164.226562 C 204.203125 162.277344 202.652344 160.730469 200.695312 160.730469 Z M 200.695312 160.730469 " fill-opacity="1" fill-rule="nonzero"/></svg>